<?xml version="1.0" standalone="no"?>
<!DOCTYPE svg PUBLIC "-//W3C//DTD SVG 20010904//EN"
 "http://www.w3.org/TR/2001/REC-SVG-20010904/DTD/svg10.dtd">
<svg version="1.0" xmlns="http://www.w3.org/2000/svg"
 width="500.000000pt" height="500.000000pt" viewBox="0 0 500.000000 500.000000"
 preserveAspectRatio="xMidYMid meet">
<metadata>
Created by potrace 1.14, written by Peter Selinger 2001-2017
</metadata>
<g transform="translate(0.000000,500.000000) scale(0.100000,-0.100000)"
fill="#000000" stroke="none">
<path d="M2357 4042 c-19 -4 -19 -27 -2 -182 7 -62 14 -132 25 -245 6 -60 13
-123 15 -140 2 -16 7 -68 11 -115 13 -168 16 -89 9 235 -4 182 -8 356 -8 387
-1 59 -9 69 -50 60z"/>
<path d="M2172 4034 c-6 -3 -10 -9 -8 -13 2 -3 7 -27 11 -51 3 -25 8 -52 10
-60 2 -8 16 -80 30 -160 14 -80 27 -156 30 -170 6 -30 35 -193 42 -235 2 -16
9 -46 13 -65 9 -34 6 36 -5 140 -2 19 -6 64 -10 100 -3 36 -8 81 -10 100 -4
32 -17 155 -31 305 -3 33 -7 71 -9 85 -1 18 -8 26 -26 27 -13 1 -30 -1 -37 -3z"/>
<path d="M2514 4029 c-4 -7 0 -256 10 -612 3 -86 16 -136 16 -61 1 21 3 71 5
109 12 194 15 249 21 360 3 66 7 139 9 162 3 39 1 41 -26 45 -17 3 -32 1 -35
-3z"/>
<path d="M2035 4012 c-11 -2 -25 -8 -31 -13 -7 -6 15 -104 73 -321 45 -172 90
-343 100 -381 9 -37 18 -65 20 -63 4 4 -21 155 -52 311 -8 39 -16 86 -19 105
-3 19 -10 60 -16 90 -13 66 -17 91 -36 194 -7 43 -15 80 -16 81 -2 1 -12 -1
-23 -3z"/>
<path d="M2679 3978 c-1 -18 -2 -49 -3 -68 -2 -19 -6 -91 -10 -160 -7 -124 -9
-164 -21 -375 -6 -112 -1 -139 10 -50 3 28 8 61 10 75 3 14 8 48 11 75 4 28
21 156 38 285 22 160 29 237 21 242 -5 4 -20 8 -32 8 -19 0 -23 -6 -24 -32z"/>
<path d="M1840 3961 c-16 -11 -24 15 166 -529 37 -106 69 -191 71 -189 4 4
-14 76 -103 412 -26 99 -54 209 -63 245 -18 67 -36 83 -71 61z"/>
<path d="M2846 3943 c-3 -15 -8 -48 -11 -73 -3 -25 -10 -74 -15 -110 -5 -36
-21 -150 -35 -255 -14 -104 -28 -201 -31 -215 -3 -16 -2 -21 4 -15 5 6 14 35
20 65 6 30 27 129 47 220 68 308 85 393 83 396 -2 1 -15 5 -30 9 -23 6 -27 3
-32 -22z"/>
<path d="M3005 3898 c-7 -29 -35 -165 -41 -198 -3 -14 -12 -54 -20 -90 -8 -36
-24 -105 -34 -155 -11 -49 -26 -121 -35 -160 -23 -108 -17 -101 21 25 19 63
47 153 61 200 14 47 32 105 39 130 7 25 26 89 42 143 l30 97 -29 15 c-27 15
-29 14 -34 -7z"/>
<path d="M1684 3897 c-21 -12 -17 -21 136 -364 148 -335 191 -423 154 -322
-16 44 -64 180 -184 522 -35 97 -68 177 -74 177 -6 -1 -20 -6 -32 -13z"/>
<path d="M1537 3824 c-16 -9 -27 -18 -25 -22 5 -11 53 -102 95 -178 21 -39 92
-170 158 -292 65 -122 120 -220 122 -218 2 2 -113 267 -191 441 -37 81 -66
146 -91 205 -16 36 -31 68 -34 72 -3 3 -19 0 -34 -8z"/>
<path d="M3151 3808 c-48 -155 -182 -611 -179 -613 2 -2 24 51 50 118 26 67
80 208 121 312 72 187 73 190 53 202 -30 18 -33 16 -45 -19z"/>
<path d="M3302 3743 c-5 -10 -58 -143 -117 -296 -103 -268 -130 -354 -70 -224
15 34 75 158 132 275 56 117 103 217 103 221 0 4 -9 16 -19 25 -18 17 -20 17
-29 -1z"/>
<path d="M1397 3732 c-15 -9 -27 -19 -27 -22 0 -7 395 -621 412 -641 7 -8 10
-10 7 -5 -3 6 -30 56 -59 111 -29 55 -101 190 -160 300 -59 110 -116 216 -127
236 -19 37 -20 37 -46 21z"/>
<path d="M3364 3504 c-42 -87 -89 -188 -106 -224 -17 -36 -43 -91 -59 -122
-16 -32 -27 -58 -25 -58 3 0 72 112 111 182 6 10 52 91 103 180 l94 161 -21
20 -20 21 -77 -160z"/>
<path d="M1257 3622 c-10 -10 -17 -21 -17 -24 0 -3 99 -136 220 -294 122 -159
227 -298 236 -309 l15 -20 -10 20 c-6 11 -59 95 -118 188 -59 92 -150 232
-201 312 -51 80 -97 145 -101 145 -4 0 -15 -8 -24 -18z"/>
<path d="M3455 3368 c-58 -100 -111 -190 -115 -198 -75 -126 -88 -150 -82
-146 4 2 59 79 122 171 63 91 139 200 168 242 53 75 54 76 34 95 -19 20 -20
19 -127 -164z"/>
<path d="M1138 3508 c-21 -26 -22 -35 -5 -52 13 -14 39 -43 162 -181 44 -50
85 -95 90 -101 6 -6 44 -49 85 -95 180 -201 169 -185 -183 281 -142 187 -128
174 -149 148z"/>
<path d="M3609 3342 c-35 -50 -89 -128 -119 -172 -30 -45 -74 -108 -98 -141
-23 -32 -40 -59 -38 -59 3 0 42 46 88 103 45 56 90 111 100 122 97 117 158
191 158 196 0 3 -6 13 -14 24 -12 17 -18 11 -77 -73z"/>
<path d="M1026 3375 l-19 -28 89 -85 c49 -46 134 -127 189 -180 218 -208 248
-236 234 -217 -8 11 -18 25 -24 31 -5 6 -23 26 -39 45 -43 49 -264 296 -312
349 -23 25 -54 60 -71 79 l-29 33 -18 -27z"/>
<path d="M3699 3223 c-35 -43 -110 -136 -167 -208 l-105 -130 78 80 c219 226
272 281 278 292 8 13 -1 43 -13 43 -4 0 -36 -35 -71 -77z"/>
<path d="M930 3235 c-16 -30 -33 -13 181 -186 79 -64 184 -149 233 -189 48
-40 83 -64 77 -52 -6 11 -15 22 -20 24 -5 1 -91 82 -192 178 -297 284 -262
256 -279 225z"/>
<path d="M2751 3244 c0 -11 3 -14 6 -6 3 7 2 16 -1 19 -3 4 -6 -2 -5 -13z"/>
<path d="M2080 3216 c0 -8 4 -17 9 -20 5 -4 7 3 4 14 -6 23 -13 26 -13 6z"/>
<path d="M3786 3108 c-32 -35 -99 -106 -150 -158 -111 -115 -140 -153 -66 -85
31 28 91 82 135 120 166 145 172 152 154 170 -14 15 -21 11 -73 -47z"/>
<path d="M3066 3133 c-6 -14 -5 -15 5 -6 7 7 10 15 7 18 -3 3 -9 -2 -12 -12z"/>
<path d="M851 3088 c-5 -13 -7 -26 -5 -30 4 -6 109 -80 274 -193 297 -204 315
-214 189 -113 -37 29 -150 122 -252 206 -102 83 -188 152 -192 152 -3 0 -9
-10 -14 -22z"/>
<path d="M3889 3007 c-13 -12 -62 -56 -109 -97 -47 -41 -98 -86 -115 -101 -16
-15 -41 -37 -54 -48 -13 -12 -20 -21 -15 -21 5 0 26 15 46 33 20 17 93 74 162
126 69 51 126 100 126 107 0 23 -16 23 -41 1z"/>
<path d="M790 2939 c-9 -17 -9 -24 2 -35 7 -7 96 -61 198 -120 269 -155 320
-183 320 -179 0 2 -100 72 -222 156 -123 84 -237 163 -255 176 l-32 24 -11
-22z"/>
<path d="M1681 2912 c-8 -3 -11 -86 -11 -283 l0 -279 65 0 64 0 3 107 3 108
83 -108 83 -107 81 0 c75 0 80 1 67 18 -44 56 -137 167 -151 181 -25 22 -22
33 14 56 79 50 97 172 38 247 -36 46 -80 59 -209 61 -65 2 -124 1 -130 -1z
m202 -113 c29 -16 37 -28 37 -60 0 -41 -29 -69 -75 -72 l-40 -2 -3 73 -3 72
31 0 c17 0 41 -5 53 -11z"/>
<path d="M3835 2788 c-221 -170 -221 -170 -2 -29 133 85 162 111 140 124 -5 3
-66 -40 -138 -95z"/>
<path d="M2890 2765 c0 -63 -1 -65 -25 -65 -20 0 -25 -5 -25 -25 0 -31 -1 -31
-46 0 -44 30 -90 39 -154 32 -59 -7 -98 -26 -136 -66 l-29 -31 -35 35 c-46 45
-97 65 -162 65 -161 -1 -259 -154 -180 -282 48 -77 183 -111 277 -69 27 12 59
34 73 50 l24 29 37 -37 c65 -65 178 -81 267 -36 67 34 98 83 98 155 0 30 -4
63 -8 73 -6 12 -4 17 7 17 12 0 16 -19 19 -105 3 -99 5 -106 31 -132 28 -28
53 -32 157 -24 14 1 51 -1 83 -5 117 -14 187 31 187 119 0 47 -41 91 -98 107
-21 5 -44 15 -52 20 -13 9 -13 12 3 24 13 10 28 11 55 5 51 -12 50 -12 67 21
21 41 19 47 -16 59 -69 24 -162 10 -206 -31 l-21 -20 2 26 c3 24 0 26 -35 26
l-39 0 0 65 0 65 -60 0 -60 0 0 -65z m-582 -164 c37 -3 64 -68 46 -116 -8 -21
-55 -45 -80 -40 -10 2 -22 4 -25 4 -17 3 -49 45 -49 66 0 53 40 97 80 89 8 -1
21 -3 28 -3z m419 -25 c25 -30 29 -53 12 -89 -34 -75 -149 -46 -149 37 0 77
87 110 137 52z m350 5 c5 -36 31 -61 91 -88 39 -17 52 -28 50 -41 -5 -25 -44
-27 -83 -3 -32 19 -35 19 -45 3 -7 -11 -13 -13 -16 -6 -3 7 -14 9 -26 7 -29
-8 -38 12 -38 89 l0 66 32 -1 c25 -2 32 -7 35 -26z"/>
<path d="M740 2775 c0 -27 -8 -23 335 -185 50 -23 108 -51 130 -61 35 -17 37
-17 16 -2 -37 28 -461 273 -472 273 -5 0 -9 -11 -9 -25z"/>
<path d="M3949 2712 c-30 -20 -97 -64 -147 -96 -51 -33 -92 -61 -92 -63 0 -2
42 19 93 47 50 28 120 65 155 82 41 21 62 38 62 50 0 24 -6 23 -71 -20z"/>
<path d="M710 2617 c0 -20 22 -31 203 -100 111 -43 223 -87 250 -98 26 -10 47
-17 47 -15 0 8 -476 236 -490 236 -6 0 -10 -10 -10 -23z"/>
<path d="M3900 2534 c-74 -41 -132 -74 -128 -74 6 0 269 118 274 123 2 1 0 8
-4 14 -5 7 -54 -15 -142 -63z"/>
<path d="M1255 2500 c3 -5 8 -10 11 -10 2 0 4 5 4 10 0 6 -5 10 -11 10 -5 0
-7 -4 -4 -10z"/>
<path d="M695 2482 c-12 -12 -4 -41 13 -46 54 -15 338 -101 401 -122 103 -33
77 -15 -44 30 -55 21 -160 62 -232 91 -73 28 -135 50 -138 47z"/>
<path d="M4035 2462 c-6 -5 -50 -26 -100 -47 -118 -51 -131 -63 -25 -24 47 17
99 35 117 41 22 6 30 13 26 23 -6 17 -6 18 -18 7z"/>
<path d="M690 2311 c0 -13 8 -22 23 -26 132 -30 353 -75 360 -72 7 2 -201 68
-365 114 -13 4 -18 0 -18 -16z"/>
<path d="M3962 2298 c-50 -18 -90 -33 -88 -36 6 -5 169 39 180 49 22 20 -5 16
-92 -13z"/>
<path d="M1860 2250 c-10 -18 -7 -22 19 -33 37 -16 28 -43 -10 -32 -18 6 -21
4 -13 -5 7 -6 22 -10 35 -8 31 4 32 39 1 53 -28 13 -23 31 9 27 19 -2 21 -1 9
7 -23 16 -38 13 -50 -9z"/>
<path d="M2030 2222 c0 -29 4 -52 9 -52 5 0 7 9 4 20 -4 16 0 20 21 20 20 0
26 -5 26 -22 0 -36 13 -11 16 32 2 22 -1 40 -7 40 -5 0 -9 -9 -9 -20 0 -26
-42 -22 -46 4 -6 39 -14 26 -14 -22z"/>
<path d="M2219 2268 c-6 -13 -4 -81 3 -90 4 -8 8 9 8 40 0 28 -2 52 -5 52 -3
0 -5 -1 -6 -2z"/>
<path d="M2341 2263 c-1 -7 6 -31 15 -54 19 -46 32 -41 53 20 16 48 6 51 -14
5 l-16 -39 -19 40 c-10 22 -19 34 -19 28z"/>
<path d="M2536 2230 c-17 -44 -22 -75 -8 -52 12 19 52 24 52 6 0 -8 4 -14 10
-14 9 0 -15 76 -30 93 -4 5 -15 -10 -24 -33z m28 -5 c3 -9 0 -15 -9 -15 -9 0
-12 6 -9 15 4 8 7 15 9 15 2 0 5 -7 9 -15z"/>
<path d="M2707 2263 c-14 -14 -6 -39 16 -48 25 -11 21 -31 -5 -28 -10 2 -18
-2 -18 -8 0 -6 12 -9 28 -7 34 4 37 38 4 53 -28 12 -23 31 8 27 14 -2 20 0 16
7 -8 12 -39 15 -49 4z"/>
<path d="M2888 2258 c-39 -32 -19 -92 30 -86 37 4 53 49 27 78 -21 23 -35 25
-57 8z m51 -22 c9 -11 9 -19 -1 -35 -7 -12 -18 -21 -24 -21 -20 0 -36 28 -29
50 7 23 37 27 54 6z"/>
<path d="M3070 2260 c-5 -29 -1 -73 9 -83 5 -5 21 -7 35 -3 24 6 26 11 24 54
-1 40 -2 42 -5 12 -9 -71 -49 -76 -56 -7 -2 23 -5 35 -7 27z"/>
<path d="M1098 2203 c7 -3 16 -2 19 1 4 3 -2 6 -13 5 -11 0 -14 -3 -6 -6z"/>
<path d="M3972 2179 c-76 -21 -98 -31 -57 -24 17 3 48 8 70 11 45 7 72 19 59
26 -5 2 -37 -3 -72 -13z"/>
<path d="M700 2160 c0 -22 -7 -20 220 -50 85 -11 163 -22 173 -24 9 -2 15 -1
12 4 -2 4 -21 10 -42 13 -53 8 -80 14 -227 47 -72 17 -131 30 -133 30 -2 0 -3
-9 -3 -20z"/>
<path d="M3992 2063 c-18 -2 -30 -8 -28 -12 7 -10 66 -1 66 10 0 5 -1 8 -2 7
-2 0 -18 -3 -36 -5z"/>
<path d="M3918 2043 c6 -2 18 -2 25 0 6 3 1 5 -13 5 -14 0 -19 -2 -12 -5z"/>
<path d="M720 2016 c0 -8 3 -17 8 -19 4 -3 72 -8 151 -11 80 -4 148 -9 153
-12 4 -3 8 0 8 5 0 6 -4 11 -8 11 -9 0 -210 26 -274 35 -30 5 -38 3 -38 -9z"/>
<path d="M1078 1973 c7 -3 16 -2 19 1 4 3 -2 6 -13 5 -11 0 -14 -3 -6 -6z"/>
<path d="M3943 1933 c15 -2 37 -2 50 0 12 2 0 4 -28 4 -27 0 -38 -2 -22 -4z"/>
<path d="M750 1881 c0 -18 27 -28 70 -25 25 1 94 2 154 3 60 1 107 3 105 5 -2
3 -51 7 -109 11 -58 3 -131 8 -162 10 -32 3 -58 1 -58 -4z"/>
<path d="M902 1752 c-76 -2 -102 -6 -99 -15 4 -13 12 -13 135 -2 102 9 110 10
116 16 6 5 -1 5 -152 1z"/>
<path d="M1075 1640 c-3 -5 -1 -10 4 -10 6 0 11 5 11 10 0 6 -2 10 -4 10 -3 0
-8 -4 -11 -10z"/>
<path d="M985 1633 c-124 -13 -137 -15 -127 -25 7 -7 40 -5 106 7 120 21 129
30 21 18z"/>
<path d="M1128 1533 c7 -3 16 -2 19 1 4 3 -2 6 -13 5 -11 0 -14 -3 -6 -6z"/>
<path d="M982 1512 c-35 -8 -60 -18 -55 -22 4 -5 49 2 98 15 96 26 65 31 -43
7z"/>
<path d="M1125 1425 c-5 -2 -36 -11 -67 -20 -32 -9 -58 -20 -58 -25 0 -9 124
31 137 43 7 7 4 8 -12 2z"/>
<path d="M1123 1302 c-24 -9 -43 -20 -43 -24 0 -8 52 11 87 31 26 15 4 12 -44
-7z"/>
<path d="M1191 1204 c-18 -8 -31 -17 -28 -20 3 -3 22 4 44 15 44 23 34 26 -16
5z"/>
<path d="M1266 1115 c-11 -8 -15 -15 -9 -15 6 0 16 7 23 15 16 19 11 19 -14 0z"/>
</g>
</svg>
